<?xml version="1.0" encoding="UTF-8" standalone="no"?>
<svg
   class="ionicon"
   viewBox="0 0 512 512"
   version="1.1"
   id="svg10"
   sodipodi:docname="1-c.svg"
   inkscape:version="1.2.2 (b0a8486541, 2022-12-01)"
   xmlns:inkscape="http://www.inkscape.org/namespaces/inkscape"
   xmlns:sodipodi="http://sodipodi.sourceforge.net/DTD/sodipodi-0.dtd"
   xmlns="http://www.w3.org/2000/svg"
   xmlns:svg="http://www.w3.org/2000/svg">
  <defs
     id="defs14" />
  <sodipodi:namedview
     id="namedview12"
     pagecolor="#ffffff"
     bordercolor="#000000"
     borderopacity="0.25"
     inkscape:showpageshadow="2"
     inkscape:pageopacity="0.0"
     inkscape:pagecheckerboard="0"
     inkscape:deskcolor="#d1d1d1"
     showgrid="false"
     inkscape:zoom="1.3206183"
     inkscape:cx="446.38181"
     inkscape:cy="352.86501"
     inkscape:window-width="1884"
     inkscape:window-height="1006"
     inkscape:window-x="0"
     inkscape:window-y="0"
     inkscape:window-maximized="1"
     inkscape:current-layer="svg10" />
  <path
     d="M48 322.3V189.7A29.74 29.74 0 0177.7 160h137.44l24.4-32H77.7A61.77 61.77 0 0016 189.7v132.6A61.77 61.77 0 0077.7 384h96.85a22.57 22.57 0 01.26-7.32l.15-.75.21-.73 6.5-23.2H77.7A29.74 29.74 0 0148 322.3zM386.3 128h-98.64a22.69 22.69 0 01-.27 7.2l-.15.74-.21.73-6.54 23.33H386.3a29.74 29.74 0 0129.7 29.7v132.6a29.74 29.74 0 01-29.7 29.7H247l-24.42 32H386.3a61.77 61.77 0 0061.7-61.7V189.7a61.77 61.77 0 00-61.7-61.7z"
     id="path2"
     style="fill:#0e2244" />
  <path
     id="path4"
     style="fill:#0e2244"
     d="M 89.689453 183 A 20 20 0 0 0 80.019531 185.54297 C 79.756448 185.69326 79.502043 185.85784 79.246094 186.01953 A 20 20 0 0 0 79.242188 186.02148 A 20 20 0 0 0 79.236328 186.02539 A 20 20 0 0 0 76.261719 188.31055 C 75.818659 188.71925 75.3944 189.14641 74.988281 189.5918 C 74.987662 189.59248 74.986948 189.59307 74.986328 189.59375 C 74.980592 189.59973 74.974331 189.60519 74.96875 189.61133 A 20 20 0 0 0 74.960938 189.62109 A 20 20 0 0 0 74.958984 189.625 A 20 20 0 0 0 72.847656 192.37695 C 72.847173 192.37771 72.846186 192.37815 72.845703 192.37891 C 72.616609 192.73667 72.38434 193.09308 72.177734 193.46484 A 20 20 0 0 0 70.478516 197.56445 C 70.425768 197.74516 70.381561 197.92878 70.333984 198.11133 A 20 20 0 0 0 69.689453 203 L 69.689453 309 A 20 20 0 0 0 70.333984 313.88867 C 70.369328 314.02429 70.403203 314.16032 70.441406 314.29492 C 70.448894 314.32216 70.455066 314.34983 70.462891 314.37695 C 70.468364 314.39639 70.472861 314.41617 70.478516 314.43555 A 20 20 0 0 0 72.177734 318.53516 C 72.34797 318.84148 72.542949 319.13281 72.728516 319.42969 C 72.754848 319.47181 72.780007 319.51471 72.806641 319.55664 C 72.81961 319.57816 72.832161 319.59995 72.845703 319.62109 A 20 20 0 0 0 72.847656 319.62305 A 20 20 0 0 0 74.958984 322.375 A 20 20 0 0 0 74.960938 322.37891 A 20 20 0 0 0 74.96875 322.38867 C 74.974951 322.39549 74.982072 322.40139 74.988281 322.4082 C 75.3944 322.85359 75.818659 323.28075 76.261719 323.68945 A 20 20 0 0 0 79.236328 325.97461 A 20 20 0 0 0 79.242188 325.97852 A 20 20 0 0 0 79.246094 325.98047 C 79.502043 326.14216 79.756448 326.30674 80.019531 326.45703 A 20 20 0 0 0 89.689453 329 L 95.179688 329 C 105.39157 328.27784 113.8418 319.42319 113.8418 309.07031 L 113.8418 202.92969 C 113.8418 192.57681 105.39157 183.72216 95.179688 183 L 89.689453 183 z " />
  <path
     d="M276.07 280.89l27.07-35.49a5.2 5.2 0 00.77-1.91 5 5 0 00.08-.66 5 5 0 00-.08-1.29 5.11 5.11 0 00-.68-1.75 4.76 4.76 0 00-.78-.95 3.48 3.48 0 00-.48-.38 4 4 0 00-1.11-.55 4.28 4.28 0 00-1.31-.2h-61.62l12.12-43.21 3.23-11.5 6.21-22.16.51-1.84 7.79-27.76a3.51 3.51 0 00.05-.55v-.16c0-.05 0-.26-.05-.38s0-.09 0-.14a2.2 2.2 0 00-.17-.45 3.77 3.77 0 00-.26-.39l-.09-.1a2.73 2.73 0 00-.25-.23l-.1-.08a3.14 3.14 0 00-.39-.24 2 2 0 00-.41-.14H265.53a2.3 2.3 0 00-.45 0 1.9 1.9 0 00-.42.15l-.13.07-.3.21-.11.1a2.4 2.4 0 00-.36.41l-18 23.63-13.14 17.22-9.85 12.83-63.71 83.55a5.72 5.72 0 00-.44.8 4.78 4.78 0 00-.35 1.09 4.7 4.7 0 00-.08 1.29 4.86 4.86 0 002 3.71 4.74 4.74 0 00.54.31 4.31 4.31 0 001.89.43h61.62L194.42 380.6a3.64 3.64 0 000 .56v.15a2.32 2.32 0 00.06.38.58.58 0 000 .14 2.2 2.2 0 00.17.45 3.62 3.62 0 00.26.38l.09.1.25.24a.39.39 0 01.1.08 2.22 2.22 0 00.39.23 2.83 2.83 0 00.41.14h.13a1.86 1.86 0 00.33 0h.13a2.32 2.32 0 00.45-.06 2.05 2.05 0 00.41-.16l.13-.07.3-.21.11-.09a2.4 2.4 0 00.36-.41L221.82 352l17.53-23z"
     id="path6"
     style="fill:#0e2244" />
  <path
     d="m 480,202.67 a 16,16 0 0 0 -16,16 v 74.66 a 16,16 0 0 0 32,0 v -74.66 a 16,16 0 0 0 -16,-16 z"
     id="path15614"
     style="fill:#0e2244" />
</svg>
