<?xml version="1.0" encoding="UTF-8" standalone="no"?>
<!-- Generator: Adobe Illustrator 26.0.3, SVG Export Plug-In . SVG Version: 6.00 Build 0)  -->

<svg
   version="1.0"
   id="katman_1"
   x="0px"
   y="0px"
   viewBox="0 0 332.30814 332.23413"
   xml:space="preserve"
   sodipodi:docname="chrome.svg"
   width="332.30814"
   height="332.23413"
   inkscape:version="1.2.2 (b0a8486541, 2022-12-01)"
   xmlns:inkscape="http://www.inkscape.org/namespaces/inkscape"
   xmlns:sodipodi="http://sodipodi.sourceforge.net/DTD/sodipodi-0.dtd"
   xmlns="http://www.w3.org/2000/svg"
   xmlns:svg="http://www.w3.org/2000/svg"><defs
   id="defs9" /><sodipodi:namedview
   id="namedview7"
   pagecolor="#ffffff"
   bordercolor="#000000"
   borderopacity="0.25"
   inkscape:showpageshadow="2"
   inkscape:pageopacity="0.0"
   inkscape:pagecheckerboard="0"
   inkscape:deskcolor="#d1d1d1"
   showgrid="false"
   inkscape:zoom="1.0134173"
   inkscape:cx="208.69982"
   inkscape:cy="60.192383"
   inkscape:window-width="1884"
   inkscape:window-height="1009"
   inkscape:window-x="18"
   inkscape:window-y="53"
   inkscape:window-maximized="1"
   inkscape:current-layer="katman_1" />
<style
   type="text/css"
   id="style2">
	.st0{fill-rule:evenodd;clip-rule:evenodd;}
</style>
<path
   class="st0"
   d="m 40.047698,57.900482 c 77.200002,-89.9 220.500002,-72.2 274.000002,32.9 h -128.6 c -23.2,0 -38.2,-0.5 -54.4,8 -19.1,9.999998 -33.400002,28.599998 -38.500002,50.499998 z M 110.8477,166.20048 c 0,30.5 24.7,55.2 55.2,55.3 30.5,0 55.2,-24.8 55.2,-55.3 0,-30.5 -24.7,-55.2 -55.2,-55.3 -30.5,0.1 -55.2,24.8 -55.2,55.3 z m 76.6,72.3 c -31,9.2 -67.3,-1 -87.1,-35.3 -15.200002,-26.2 -55.200002,-96 -73.400002,-127.699998 -63.8,97.799998 -8.8,230.999998 107.000002,253.699998 0,0 53.5,-90.7 53.5,-90.7 z m 29.9,-127.6 c 25.8,24 31.4,62.9 14,93 -13.2,22.7 -55.2,93.7 -75.6,128 119.3,7.4 206.3,-109.6 167,-221.1 z"
   id="path4"
   style="fill:#fafafa" />
</svg>
