<?xml version="1.0" encoding="UTF-8" standalone="no"?>
<svg
   viewBox="0 0 639.95001 512.10828"
   version="1.1"
   id="svg4"
   sodipodi:docname="code.svg"
   width="639.95001"
   height="512.10828"
   inkscape:version="1.2.2 (b0a8486541, 2022-12-01)"
   xmlns:inkscape="http://www.inkscape.org/namespaces/inkscape"
   xmlns:sodipodi="http://sodipodi.sourceforge.net/DTD/sodipodi-0.dtd"
   xmlns="http://www.w3.org/2000/svg"
   xmlns:svg="http://www.w3.org/2000/svg">
  <defs
     id="defs8" />
  <sodipodi:namedview
     id="namedview6"
     pagecolor="#ffffff"
     bordercolor="#000000"
     borderopacity="0.25"
     inkscape:showpageshadow="2"
     inkscape:pageopacity="0.0"
     inkscape:pagecheckerboard="0"
     inkscape:deskcolor="#d1d1d1"
     showgrid="false"
     inkscape:zoom="0.43457031"
     inkscape:cx="186.39101"
     inkscape:cy="199.04719"
     inkscape:window-width="933"
     inkscape:window-height="1009"
     inkscape:window-x="0"
     inkscape:window-y="0"
     inkscape:window-maximized="1"
     inkscape:current-layer="svg4" />
  <!--! Font Awesome Pro 6.4.0 by @fontawesome - https://fontawesome.com License - https://fontawesome.com/license (Commercial License) Copyright 2023 Fonticons, Inc. -->
  <path
     d="m 392.775,1.254126 c -17,-4.9 -34.7,5 -39.6,22 l -128,448.000004 c -4.9,17 5,34.7 22,39.6 17,4.9 34.7,-5 39.6,-22 l 128,-448.000004 c 4.9,-17 -5,-34.7 -22,-39.6 z m 80.6,120.100004 c -12.5,12.5 -12.5,32.8 0,45.3 l 89.3,89.4 -89.4,89.4 c -12.5,12.5 -12.5,32.8 0,45.3 12.5,12.5 32.8,12.5 45.3,0 l 112,-112 c 12.5,-12.5 12.5,-32.8 0,-45.3 l -112,-112 c -12.5,-12.5 -32.8,-12.5 -45.3,0 z m -306.7,0 c -12.5,-12.5 -32.8,-12.5 -45.3,0 l -112,112 c -12.5,12.5 -12.5,32.8 0,45.3 l 112,112 c 12.5,12.5 32.8,12.5 45.3,0 12.5,-12.5 12.5,-32.8 0,-45.3 l -89.4,-89.3 89.4,-89.4 c 12.5,-12.5 12.5,-32.8 0,-45.3 z"
     id="path2"
     style="fill:#fafafa" />
</svg>
