<?xml version="1.0" encoding="UTF-8" standalone="no"?>
<svg
   class="ionicon"
   viewBox="0 0 480 384.00012"
   version="1.1"
   id="svg4"
   sodipodi:docname="files.svg"
   width="480"
   height="384.00012"
   inkscape:version="1.2.2 (b0a8486541, 2022-12-01)"
   xmlns:inkscape="http://www.inkscape.org/namespaces/inkscape"
   xmlns:sodipodi="http://sodipodi.sourceforge.net/DTD/sodipodi-0.dtd"
   xmlns="http://www.w3.org/2000/svg"
   xmlns:svg="http://www.w3.org/2000/svg">
  <defs
     id="defs8" />
  <sodipodi:namedview
     id="namedview6"
     pagecolor="#ffffff"
     bordercolor="#000000"
     borderopacity="0.25"
     inkscape:showpageshadow="2"
     inkscape:pageopacity="0.0"
     inkscape:pagecheckerboard="0"
     inkscape:deskcolor="#d1d1d1"
     showgrid="false"
     inkscape:zoom="0.4345703"
     inkscape:cx="-9.2044946"
     inkscape:cy="599.44271"
     inkscape:window-width="933"
     inkscape:window-height="1009"
     inkscape:window-x="0"
     inkscape:window-y="0"
     inkscape:window-maximized="1"
     inkscape:current-layer="svg4" />
  <path
     d="m 480,88.000107 a 56,56 0 0 0 -56,-56 H 204.11 a 23.89,23.89 0 0 1 -13.31,-4 L 163,9.4101068 A 55.77,55.77 0 0 0 131.89,1.0679548e-4 H 56 A 56,56 0 0 0 0,56.000107 v 48.000003 a 8,8 0 0 0 8,8 h 464 a 8,8 0 0 0 8,-8 z M 0,328.00011 a 56,56 0 0 0 56,56 h 368 a 56,56 0 0 0 56,-56 v -176 a 8,8 0 0 0 -8,-8 H 8 a 8,8 0 0 0 -8,8 z"
     id="path2"
     style="fill:#2b2040" />
</svg>
