<?xml version="1.0" encoding="UTF-8" standalone="no"?>
<!-- Svg Vector Icons : http://www.onlinewebfonts.com/icon -->

<svg
   version="1.1"
   x="0px"
   y="0px"
   viewBox="0 0 602.34583 867.16571"
   enable-background="new 0 0 1000 1000"
   xml:space="preserve"
   id="svg12"
   sodipodi:docname="fl.svg"
   width="602.34583"
   height="867.16571"
   inkscape:version="1.2.2 (b0a8486541, 2022-12-01)"
   xmlns:inkscape="http://www.inkscape.org/namespaces/inkscape"
   xmlns:sodipodi="http://sodipodi.sourceforge.net/DTD/sodipodi-0.dtd"
   xmlns="http://www.w3.org/2000/svg"
   xmlns:svg="http://www.w3.org/2000/svg"><defs
   id="defs16" /><sodipodi:namedview
   id="namedview14"
   pagecolor="#ffffff"
   bordercolor="#000000"
   borderopacity="0.25"
   inkscape:showpageshadow="2"
   inkscape:pageopacity="0.0"
   inkscape:pagecheckerboard="0"
   inkscape:deskcolor="#d1d1d1"
   showgrid="false"
   inkscape:zoom="0.62932504"
   inkscape:cx="394.07299"
   inkscape:cy="293.17124"
   inkscape:window-width="933"
   inkscape:window-height="1009"
   inkscape:window-x="0"
   inkscape:window-y="0"
   inkscape:window-maximized="1"
   inkscape:current-layer="g8" />
<metadata
   id="metadata2"> Svg Vector Icons : http://www.onlinewebfonts.com/icon </metadata>
<g
   id="g10"
   transform="translate(-198.82522,-122.82681)"><g
     transform="matrix(0.1,0,0,-0.1,0,252)"
     id="g8"><path
       d="M 4548.1,1102.4 C 4007.8,1358.7 3483.4,1354.8 2951,1090.6 2501.5,861.9 2051.9,298 1996.7,-112.2 c -35.5,-252.4 19.7,-268.2 583.7,-149.8 457.4,94.6 1380.2,224.8 1407.8,197.2 7.9,-7.9 -7.9,-185.4 -35.5,-398.3 -43.4,-339.2 -39.4,-433.8 19.7,-721.7 82.8,-402.2 177.5,-599.4 390.4,-820.3 197.2,-205 469.3,-307.6 709.8,-272.1 394.3,59.2 938.6,492.9 1159.4,914.9 67.1,130.1 138,212.9 177.5,212.9 35.5,0 228.7,-181.4 433.8,-398.3 824.2,-899.1 812.4,-887.3 887.3,-840 130.1,74.9 252.4,386.5 276,694.1 39.4,528.4 -149.8,1021.4 -540.3,1411.8 C 6481.412,445.53227 5834.8576,-7.3355423 5614.6966,135.46629 5417.3224,263.48799 5149.6297,860.75844 4548.1,1102.4 Z"
       id="path4"
       sodipodi:nodetypes="ccccscccccsccccsc"
       style="fill:#fafafa" /><path
       d="m 3112.8,-455.3 c -185.4,-35.5 -252.4,-71 -347.1,-181.4 -272.1,-327.3 -477.1,-981.9 -666.4,-2153.1 -118.3,-733.5 -145.9,-2086.1 -59.2,-2693.4 67.1,-453.5 212.9,-974.1 339.1,-1230.4 122.3,-236.6 422,-536.3 611.2,-611.2 698,-264.2 1664.2,429.9 2642.1,1896.8 378.6,567.9 800.5,1352.6 1056.8,1963.9 189.5,457.3 382.7,1033.1 382.7,1147.4 0,59.2 -110.4,220.8 -299.7,433.8 l -295.8,339.2 -149.8,-189.3 c -603.4,-761.1 -1281.6,-1021.3 -1865.3,-709.8 -232.6,122.2 -489,402.2 -631,682.2 -110.4,216.9 -189.3,631 -189.3,997.7 v 362.8 l -145.9,-3.9 c -82.8,-4 -252.3,-23.7 -382.4,-51.3 z"
       id="path6"
       style="fill:#fafafa" /></g></g>
</svg>
