<?xml version="1.0" encoding="UTF-8" standalone="no"?>
<svg
   class="ionicon"
   viewBox="0 0 448.22321 448.19302"
   version="1.1"
   id="svg498"
   sodipodi:docname="gimp.svg"
   width="448.22321"
   height="448.19302"
   inkscape:version="1.2.2 (b0a8486541, 2022-12-01)"
   xmlns:inkscape="http://www.inkscape.org/namespaces/inkscape"
   xmlns:sodipodi="http://sodipodi.sourceforge.net/DTD/sodipodi-0.dtd"
   xmlns="http://www.w3.org/2000/svg"
   xmlns:svg="http://www.w3.org/2000/svg">
  <defs
     id="defs502" />
  <sodipodi:namedview
     id="namedview500"
     pagecolor="#ffffff"
     bordercolor="#000000"
     borderopacity="0.25"
     inkscape:showpageshadow="2"
     inkscape:pageopacity="0.0"
     inkscape:pagecheckerboard="0"
     inkscape:deskcolor="#d1d1d1"
     showgrid="false"
     inkscape:zoom="0.84433787"
     inkscape:cx="150.41372"
     inkscape:cy="364.1907"
     inkscape:window-width="1884"
     inkscape:window-height="1009"
     inkscape:window-x="0"
     inkscape:window-y="0"
     inkscape:window-maximized="1"
     inkscape:current-layer="svg498" />
  <path
     d="m 201.26522,328.19302 a 15.7,15.7 0 0 1 -4.92,-0.77 16,16 0 0 1 -10.92,-13 c -2.15,-15 -19.95,-32.46 -36.62,-35.85 a 16,16 0 0 1 -8.69,-26.33 l 211.09,-235.100003 c 0.19,-0.22 0.39,-0.43 0.59,-0.63 a 56.57,56.57 0 0 1 79.89,0 56.51,56.51 0 0 1 0.11,79.78 l -219,227.000003 a 16,16 0 0 1 -11.53,4.9 z m -113.26,120 c -32.14,0 -65.45,-16.89 -84.8500004,-43 a 16,16 0 0 1 12.8500004,-25.54 c 5.34,0 20,-4.87 20,-20.57 0,-39.07 31.4,-70.86 70,-70.86 38.6,0 70,31.79 70,70.86 0,49.12 -39.48,89.11 -88,89.11 z"
     id="path496"
     style="fill:#2b2040" />
</svg>
