<?xml version="1.0" encoding="UTF-8" standalone="no"?>
<svg
   class="ionicon"
   viewBox="0 0 448 384"
   version="1.1"
   id="svg4"
   sodipodi:docname="image.svg"
   width="448"
   height="384"
   inkscape:version="1.2.2 (b0a8486541, 2022-12-01)"
   xmlns:inkscape="http://www.inkscape.org/namespaces/inkscape"
   xmlns:sodipodi="http://sodipodi.sourceforge.net/DTD/sodipodi-0.dtd"
   xmlns="http://www.w3.org/2000/svg"
   xmlns:svg="http://www.w3.org/2000/svg">
  <defs
     id="defs8" />
  <sodipodi:namedview
     id="namedview6"
     pagecolor="#ffffff"
     bordercolor="#000000"
     borderopacity="0.25"
     inkscape:showpageshadow="2"
     inkscape:pageopacity="0.0"
     inkscape:pagecheckerboard="0"
     inkscape:deskcolor="#d1d1d1"
     showgrid="false"
     inkscape:zoom="0.86914063"
     inkscape:cx="191.56854"
     inkscape:cy="254.84944"
     inkscape:window-width="933"
     inkscape:window-height="495"
     inkscape:window-x="0"
     inkscape:window-y="0"
     inkscape:window-maximized="1"
     inkscape:current-layer="svg4" />
  <path
     d="M 384,0 H 64 A 64.07,64.07 0 0 0 0,64 v 256 a 64.07,64.07 0 0 0 64,64 h 320 a 64.07,64.07 0 0 0 64,-64 V 64 A 64.07,64.07 0 0 0 384,0 Z m -80,64 a 48,48 0 1 1 -48,48 48.05,48.05 0 0 1 48,-48 z M 64,352 A 32,32 0 0 1 32,320 v -67.63 l 94.84,-84.3 a 48.06,48.06 0 0 1 65.8,1.9 L 257.59,234.78 140.37,352 Z m 352,-32 a 32,32 0 0 1 -32,32 H 185.63 L 307.05,230.58 a 47.72,47.72 0 0 1 61.64,-0.16 L 416,269.84 Z"
     id="path2"
     style="fill:#fafafa" />
</svg>
