<?xml version="1.0" encoding="UTF-8" standalone="no"?>
<svg
   viewBox="0 0 24 24"
   version="1.1"
   id="svg3"
   sodipodi:docname="zoom.svg"
   width="24"
   height="24"
   inkscape:version="1.2.2 (b0a8486541, 2022-12-01)"
   xmlns:inkscape="http://www.inkscape.org/namespaces/inkscape"
   xmlns:sodipodi="http://sodipodi.sourceforge.net/DTD/sodipodi-0.dtd"
   xmlns="http://www.w3.org/2000/svg"
   xmlns:svg="http://www.w3.org/2000/svg">
  <defs
     id="defs7" />
  <sodipodi:namedview
     id="namedview5"
     pagecolor="#ffffff"
     bordercolor="#000000"
     borderopacity="0.25"
     inkscape:showpageshadow="2"
     inkscape:pageopacity="0.0"
     inkscape:pagecheckerboard="0"
     inkscape:deskcolor="#d1d1d1"
     showgrid="false"
     inkscape:zoom="6.1520124"
     inkscape:cx="-2.1131297"
     inkscape:cy="-9.0214383"
     inkscape:window-width="933"
     inkscape:window-height="1009"
     inkscape:window-x="0"
     inkscape:window-y="0"
     inkscape:window-maximized="1"
     inkscape:current-layer="svg3" />
  <path
     id="zoom"
     d="M 16.10554,0 H 7.89446 A 7.89446,7.89446 0 0 0 0,7.89446 v 8.21108 A 7.89446,7.89446 0 0 0 7.89446,24 h 8.21108 A 7.89446,7.89446 0 0 0 24,16.10554 V 7.89446 A 7.89446,7.89446 0 0 0 16.10554,0 Z M 15.36777,15.08546 A 1.11957,1.11957 0 0 1 14.2482,16.205 H 7.2672 A 2.68441,2.68441 0 0 1 4.58279,13.52058 V 9.027 a 1.232,1.232 0 0 1 1.232,-1.232 h 6.70857 a 2.84437,2.84437 0 0 1 2.84438,2.84438 z m 4.14163,0.40563 a 0.71395,0.71395 0 0 1 -1.21817,0.50544 l -1.88257,-1.87807 a 1.65461,1.65461 0 0 1 -0.486,-1.1714 V 11.213 a 1.65463,1.65463 0 0 1 0.486,-1.1714 l 1.88257,-1.87806 a 0.71394,0.71394 0 0 1 1.21817,0.50543 z"
     fill="#262626"
     style="fill:#fafafa" />
</svg>
