<?xml version="1.0" encoding="UTF-8" standalone="no"?>
<svg
   width="2499.928"
   height="2034"
   viewBox="0.499 48.118 510.98728 415.763"
   version="1.1"
   id="svg4"
   sodipodi:docname="blender.svg"
   inkscape:version="1.2.2 (b0a8486541, 2022-12-01)"
   xmlns:inkscape="http://www.inkscape.org/namespaces/inkscape"
   xmlns:sodipodi="http://sodipodi.sourceforge.net/DTD/sodipodi-0.dtd"
   xmlns="http://www.w3.org/2000/svg"
   xmlns:svg="http://www.w3.org/2000/svg">
  <defs
     id="defs8" />
  <sodipodi:namedview
     id="namedview6"
     pagecolor="#ffffff"
     bordercolor="#000000"
     borderopacity="0.25"
     inkscape:showpageshadow="2"
     inkscape:pageopacity="0.0"
     inkscape:pagecheckerboard="0"
     inkscape:deskcolor="#d1d1d1"
     showgrid="false"
     inkscape:zoom="0.15470134"
     inkscape:cx="665.79903"
     inkscape:cy="1147.3721"
     inkscape:window-width="933"
     inkscape:window-height="1009"
     inkscape:window-x="0"
     inkscape:window-y="0"
     inkscape:window-maximized="1"
     inkscape:current-layer="svg4" />
  <path
     d="m 509.99545,279.641 c -2.998,-21.097 -10.305,-41.104 -21.725,-59.459 -9.959,-16.019 -22.738,-30.266 -37.991,-42.375 l 0.041,-0.038 -160.195,-123.039 a 4.569,4.569 0 0 0 -0.361,-0.287 c -5.326,-4.08 -12.537,-6.325 -20.297,-6.325 -7.77,0 -15.263,2.25 -21.088,6.338 -6.263,4.375 -9.843,10.18 -10.093,16.359 -0.229,5.765 2.521,11.312 7.764,15.636 10.31,8.135 20.597,16.447 30.898,24.769 9.997,8.08 20.298,16.401 30.549,24.502 l -196.213,-0.133 c -22.439003,0 -37.718003,10.537 -40.861003,28.178 -1.381,7.727 1.056,16.223 6.504,22.73 5.78,6.898 14.172,10.703 23.629003,10.703 l 14.958,0.01 c 20.664,0 41.419,-0.051 62.146,-0.101 l 19.766,-0.046 -178.080003,131.748 -0.707,0.517 c -9.9470005,7.624 -16.4590005,18.313 -17.86400048,29.324 -1.065,8.342 0.88099998,15.965 5.62999998,22.053 5.6600005,7.258 14.4970005,11.25 24.8850005,11.25 10.205,0 20.618,-3.867 29.334,-10.908 l 96.166003,-78.7 c -0.411,3.843 -0.91,9.481 -0.853,13.573 0.108,6.479 2.188,19.479 5.481,30.033 6.804,21.69 18.265,41.535 34.063,58.963 16.438,18.132 36.458,32.509 59.5,42.722 24.36,10.774 50.547,16.243 77.836,16.243 h 0.253 c 27.376,-0.066 53.646,-5.622 78.085,-16.519 23.08,-10.334 43.091,-24.769 59.467,-42.898 15.778,-17.517 27.223,-37.395 34.014,-59.067 a 151.124,151.124 0 0 0 6.416,-33.003 c 0.839,-10.83 0.478,-21.85 -1.057,-32.753 z M 334.81245,383.6 c -60.141,0 -108.911,-43.627 -108.911,-97.447 0,-53.814 48.771,-97.441 108.911,-97.441 60.142,0 108.907,43.627 108.907,97.441 0.002,53.82 -48.765,97.447 -108.907,97.447 z m 62.807,-106.01 c 0.887,16.063 -5.529,30.978 -16.796,42.019 -11.461,11.248 -27.815,18.313 -46.103,18.313 -18.28,0 -34.637,-7.065 -46.102,-18.313 -11.262,-11.041 -17.665,-25.954 -16.783,-42.006 0.864,-15.603 8.475,-29.376 19.939,-39.128 11.273,-9.589 26.41,-15.439 42.945,-15.439 16.537,0 31.67,5.852 42.944,15.439 11.47,9.752 19.083,23.515 19.956,39.115 z"
     id="path2"
     style="fill:#2b2040" />
</svg>
