<?xml version="1.0" encoding="UTF-8" standalone="no"?>
<svg
   viewBox="0 0 587.99792 447.99872"
   version="1.1"
   id="svg4"
   sodipodi:docname="discord.svg"
   width="587.99792"
   height="447.99872"
   inkscape:version="1.2.2 (b0a8486541, 2022-12-01)"
   xmlns:inkscape="http://www.inkscape.org/namespaces/inkscape"
   xmlns:sodipodi="http://sodipodi.sourceforge.net/DTD/sodipodi-0.dtd"
   xmlns="http://www.w3.org/2000/svg"
   xmlns:svg="http://www.w3.org/2000/svg">
  <defs
     id="defs8" />
  <sodipodi:namedview
     id="namedview6"
     pagecolor="#ffffff"
     bordercolor="#000000"
     borderopacity="0.25"
     inkscape:showpageshadow="2"
     inkscape:pageopacity="0.0"
     inkscape:pagecheckerboard="0"
     inkscape:deskcolor="#d1d1d1"
     showgrid="false"
     inkscape:zoom="0.61457523"
     inkscape:cx="138.30691"
     inkscape:cy="340.88585"
     inkscape:window-width="933"
     inkscape:window-height="1009"
     inkscape:window-x="0"
     inkscape:window-y="0"
     inkscape:window-maximized="1"
     inkscape:current-layer="svg4" />
  <!--! Font Awesome Pro 6.4.0 by @fontawesome - https://fontawesome.com License - https://fontawesome.com/license (Commercial License) Copyright 2023 Fonticons, Inc. -->
  <path
     d="m 498.53086,37.836592 a 1.5,1.5 0 0 0 -0.764,-0.7 485.065,485.065 0 0 0 -119.686,-37.10599987 1.816,1.816 0 0 0 -1.923,0.91 337.461,337.461 0 0 0 -14.9,30.59999987 447.848,447.848 0 0 0 -134.426,0 309.541,309.541 0 0 0 -15.135,-30.59999987 1.89,1.89 0 0 0 -1.924,-0.91 483.689,483.689 0 0 0 -119.687999,37.10699987 1.712,1.712 0 0 0 -0.788,0.676 C 13.067861,151.65159 -7.8141388,262.69059 2.4298612,372.35459 a 2.016,2.016 0 0 0 0.765,1.375 487.666,487.666 0 0 0 146.8249988,74.189 1.9,1.9 0 0 0 2.063,-0.676 348.2,348.2 0 0 0 30.037,-48.842 1.86,1.86 0 0 0 -1.019,-2.588 321.173,321.173 0 0 1 -45.868,-21.853 1.885,1.885 0 0 1 -0.185,-3.126 c 3.082,-2.309 6.166,-4.711 9.109,-7.137 a 1.819,1.819 0 0 1 1.9,-0.256 c 96.229,43.917 200.41,43.917 295.5,0 a 1.812,1.812 0 0 1 1.924,0.233 c 2.944,2.426 6.027,4.851 9.132,7.16 a 1.884,1.884 0 0 1 -0.162,3.126 301.407,301.407 0 0 1 -45.89,21.83 1.875,1.875 0 0 0 -1,2.611 391.055,391.055 0 0 0 30.014,48.815 1.864,1.864 0 0 0 2.063,0.7 486.048,486.048 0 0 0 147.062,-74.186 1.882,1.882 0 0 0 0.765,-1.352 c 12.264,-126.783 -20.532,-236.912 -86.934,-334.540998 z m -302.04,267.743998 c -28.972,0 -52.844,-26.587 -52.844,-59.239 0,-32.652 23.409,-59.241 52.844,-59.241 29.665,0 53.306,26.82 52.843,59.239 0,32.654 -23.41,59.241 -52.843,59.241 z m 195.38,0 c -28.971,0 -52.843,-26.587 -52.843,-59.239 0,-32.652 23.409,-59.241 52.843,-59.241 29.667,0 53.307,26.82 52.844,59.239 0,32.654 -23.177,59.241 -52.844,59.241 z"
     id="path2"
     style="fill:#2b2040" />
</svg>
