<?xml version="1.0" encoding="UTF-8" standalone="no"?>
<svg
   viewBox="0 0 487.29352 503.50824"
   version="1.1"
   id="svg4"
   sodipodi:docname="firefox.svg"
   width="487.29352"
   height="503.50824"
   inkscape:version="1.2.2 (b0a8486541, 2022-12-01)"
   xmlns:inkscape="http://www.inkscape.org/namespaces/inkscape"
   xmlns:sodipodi="http://sodipodi.sourceforge.net/DTD/sodipodi-0.dtd"
   xmlns="http://www.w3.org/2000/svg"
   xmlns:svg="http://www.w3.org/2000/svg">
  <defs
     id="defs8" />
  <sodipodi:namedview
     id="namedview6"
     pagecolor="#ffffff"
     bordercolor="#000000"
     borderopacity="0.25"
     inkscape:showpageshadow="2"
     inkscape:pageopacity="0.0"
     inkscape:pagecheckerboard="0"
     inkscape:deskcolor="#d1d1d1"
     showgrid="false"
     inkscape:zoom="0.86914063"
     inkscape:cx="291.66742"
     inkscape:cy="295.1191"
     inkscape:window-width="933"
     inkscape:window-height="1009"
     inkscape:window-x="0"
     inkscape:window-y="0"
     inkscape:window-maximized="1"
     inkscape:current-layer="svg4" />
  <!--! Font Awesome Pro 6.4.0 by @fontawesome - https://fontawesome.com License - https://fontawesome.com/license (Commercial License) Copyright 2023 Fonticons, Inc. -->
  <path
     d="m 118.22,123.54825 c 0.16,0.01 0.08,0.01 0,0 z m 351.42,45.35 c -10.61,-25.5 -32.08,-53 -48.94,-61.73 13.72,26.89 21.67,53.88 24.7,74 0.005,0.138 0.022,0.275 0.05,0.41 C 417.87,112.82825 371.098,85.109146 332.9,24.748146 317.908,1.0581659 321.976,-0.48183412 319.82,0.08816588 l -0.12,0.07 C 272.99,26.111146 244.365,78.529146 237.12,122.89825 c -16.617,0.873 -32.901,4.997 -47.93,12.137 -1.352,0.614 -2.454,1.671 -3.124,2.996 -0.67,1.325 -0.867,2.839 -0.56,4.292 0.194,0.839 0.562,1.628 1.08,2.316 0.517,0.688 1.174,1.26 1.926,1.679 0.752,0.419 1.584,0.675 2.442,0.753 0.857,0.077 1.722,-0.026 2.537,-0.303 l 0.52,-0.21 c 15.5,-7.303 32.397,-11.165 49.53,-11.32 62.828,-0.569 97.157,44.024 107.62,62.29 -13,-9.15 -36.35,-18.19 -58.82,-14.28 87.74,43.86 64.2,194.536 -57.39,189.2 -59.464,-2.61 -97.07,-50.981 -100.53,-90.8 0,0 11.25,-41.95 80.62,-41.95 7.5,0 28.93,-20.92 29.33,-27 -0.09,-2 -42.535,-18.876 -59.09,-35.18 -8.847,-8.713 -13.052,-12.907 -16.77,-16.06 -2.012,-1.708 -4.119,-3.3 -6.31,-4.77 -5.563,-19.457 -5.802,-40.05 -0.691,-59.630004 -25.06,11.410004 -44.55,29.450004 -58.71,45.370004 h -0.12 c -9.67,-12.25 -9,-52.650104 -8.43,-61.080104 -0.12,-0.53 -7.228,3.668 -8.15,4.31 -8.5658,6.0524 -16.5472,12.8921 -23.84,20.430104 -16.291,16.6 -44.132,50.154 -55.5,101.23 -4.536,20.383 -6.76,44.421 -6.76,52.3 0,134.7 109.21,243.89 243.92,243.89 120.64,0 223.019,-87.227 240.43,-202.62 11.572,-76.696 -14.71,-131.068 -14.71,-131.99 z"
     id="path2"
     style="fill:#2b2040" />
</svg>
