<?xml version="1.0" encoding="UTF-8" standalone="no"?>
<svg
   class="ionicon"
   viewBox="0 0 480 448"
   version="1.1"
   id="svg201"
   sodipodi:docname="term.svg"
   width="480"
   height="448"
   inkscape:version="1.2.2 (b0a8486541, 2022-12-01)"
   xmlns:inkscape="http://www.inkscape.org/namespaces/inkscape"
   xmlns:sodipodi="http://sodipodi.sourceforge.net/DTD/sodipodi-0.dtd"
   xmlns="http://www.w3.org/2000/svg"
   xmlns:svg="http://www.w3.org/2000/svg">
  <defs
     id="defs205" />
  <sodipodi:namedview
     id="namedview203"
     pagecolor="#ffffff"
     bordercolor="#000000"
     borderopacity="0.25"
     inkscape:showpageshadow="2"
     inkscape:pageopacity="0.0"
     inkscape:pagecheckerboard="0"
     inkscape:deskcolor="#d1d1d1"
     showgrid="false"
     inkscape:zoom="1.1310946"
     inkscape:cx="39.342421"
     inkscape:cy="280.70154"
     inkscape:window-width="933"
     inkscape:window-height="1009"
     inkscape:window-x="0"
     inkscape:window-y="0"
     inkscape:window-maximized="1"
     inkscape:current-layer="svg201" />
  <path
     d="M 416,0 H 64 A 64.07,64.07 0 0 0 0,64 v 320 a 64.07,64.07 0 0 0 64,64 h 352 a 64.07,64.07 0 0 0 64,-64 V 64 A 64.07,64.07 0 0 0 416,0 Z M 80,224 A 16,16 0 0 1 70,195.51 L 134.39,144 70,92.49 a 16.007811,16.007811 0 1 1 20,-25 l 80,64 a 16,16 0 0 1 0,25 l -80,64 A 16,16 0 0 1 80,224 Z m 160,0 h -64 a 16,16 0 0 1 0,-32 h 64 a 16,16 0 0 1 0,32 z"
     id="path199"
     style="fill:#fafafa" />
</svg>
