<?xml version="1.0" encoding="UTF-8" standalone="no"?>
<!-- Svg Vector Icons : http://www.onlinewebfonts.com/icon -->

<svg
   version="1.1"
   x="0px"
   y="0px"
   viewBox="0 0 435.51346 511.6518"
   enable-background="new 0 0 1000 1000"
   xml:space="preserve"
   id="svg14"
   sodipodi:docname="vlc.svg"
   width="435.51346"
   height="511.65179"
   inkscape:version="1.2.2 (b0a8486541, 2022-12-01)"
   xmlns:inkscape="http://www.inkscape.org/namespaces/inkscape"
   xmlns:sodipodi="http://sodipodi.sourceforge.net/DTD/sodipodi-0.dtd"
   xmlns="http://www.w3.org/2000/svg"
   xmlns:svg="http://www.w3.org/2000/svg"><defs
   id="defs18" /><sodipodi:namedview
   id="namedview16"
   pagecolor="#ffffff"
   bordercolor="#000000"
   borderopacity="0.25"
   inkscape:showpageshadow="2"
   inkscape:pageopacity="0.0"
   inkscape:pagecheckerboard="0"
   inkscape:deskcolor="#d1d1d1"
   showgrid="false"
   inkscape:zoom="0.2225"
   inkscape:cx="280.89888"
   inkscape:cy="640.44944"
   inkscape:window-width="933"
   inkscape:window-height="1009"
   inkscape:window-x="0"
   inkscape:window-y="0"
   inkscape:window-maximized="1"
   inkscape:current-layer="g10" />
<metadata
   id="metadata2"> Svg Vector Icons : http://www.onlinewebfonts.com/icon </metadata>
<g
   id="g12"
   transform="translate(-150.41403,-308.82983)"><g
     transform="matrix(0.1,0,0,-0.1,0,250)"
     id="g10"><path
       style="fill:#2b2040;stroke-width:10"
       d="m 1746.7272,-5694.058 c -130.4979,31.8423 -230.3162,148.1902 -242.5103,282.6693 -5.6871,62.7182 307.1705,1352.3873 351.2886,1448.0903 66.2609,143.7362 140.6777,174.1518 436.2217,178.2923 290.5661,4.0708 300.0873,0.84 324.1842,-110.0216 87.9161,-404.4695 2043.7155,-404.4695 2131.6316,0 24.0969,110.8611 33.6181,114.0924 324.1842,110.0216 295.5409,-4.1405 369.8582,-34.5128 436.2594,-178.2923 43.7827,-94.8035 356.873,-1386.0891 351.2125,-1448.5139 -9.9902,-110.1743 -80.4115,-211.1815 -182.4719,-261.7247 -49.6733,-24.5996 -3832.3374,-44.3513 -3930,-20.521 z m 1560,2356.4018 c -345.7099,46.9523 -641.8627,151.779 -659.823,233.5521 -6.6164,30.124 223.5183,814.2562 251.5169,856.9875 27.9436,42.6474 66.8853,46.5709 198.8282,20.0325 229.2666,-46.1134 287.4796,-51.2143 584.4779,-51.2143 296.5175,0 346.3966,4.361 581.7382,50.8626 209.5771,41.4107 180.7143,79.4122 337.8107,-444.7705 156.6461,-522.6802 165.0178,-474.49 -97.7154,-562.4855 -324.6542,-108.7342 -832.5967,-152.4329 -1196.8335,-102.9644 z m 70,1914.6123 c -225.8922,25.0034 -229.398,35.9809 -123.7994,387.6382 120.4189,401.01085 164.6278,447.10735 428.7994,447.10735 264.1716,0 308.3805,-46.0965 428.7994,-447.10735 118.0273,-393.0464 125.6563,-385.1418 -378.7994,-392.4882 -151.25,-2.2027 -311,-0.02 -355,4.85 z"
       id="path404" /></g></g>
</svg>
