<?xml version="1.0" encoding="UTF-8" standalone="no"?>
<svg
   class="ionicon"
   viewBox="0 0 448 416"
   version="1.1"
   id="svg407"
   sodipodi:docname="zip.svg"
   width="448"
   height="416"
   inkscape:version="1.2.2 (b0a8486541, 2022-12-01)"
   xmlns:inkscape="http://www.inkscape.org/namespaces/inkscape"
   xmlns:sodipodi="http://sodipodi.sourceforge.net/DTD/sodipodi-0.dtd"
   xmlns="http://www.w3.org/2000/svg"
   xmlns:svg="http://www.w3.org/2000/svg">
  <defs
     id="defs411" />
  <sodipodi:namedview
     id="namedview409"
     pagecolor="#ffffff"
     bordercolor="#000000"
     borderopacity="0.25"
     inkscape:showpageshadow="2"
     inkscape:pageopacity="0.0"
     inkscape:pagecheckerboard="0"
     inkscape:deskcolor="#d1d1d1"
     showgrid="false"
     inkscape:zoom="0.61457523"
     inkscape:cx="-79.729865"
     inkscape:cy="186.30754"
     inkscape:window-width="1884"
     inkscape:window-height="1009"
     inkscape:window-x="0"
     inkscape:window-y="0"
     inkscape:window-maximized="1"
     inkscape:current-layer="svg407" />
  <path
     d="m 32,116 v 244 a 56,56 0 0 0 56,56 h 272 a 56,56 0 0 0 56,-56 V 116 a 4,4 0 0 0 -4,-4 H 36 a 4,4 0 0 0 -4,4 z m 267,151.63 -63.69,63.68 a 16,16 0 0 1 -22.62,0 L 149,267.63 c -6.09,-6.09 -6.65,-16 -0.85,-22.38 a 16,16 0 0 1 23.16,-0.56 L 208,281.37 V 176.45 c 0,-8.61 6.62,-16 15.23,-16.43 A 16,16 0 0 1 240,176 v 105.37 l 36.69,-36.68 a 16,16 0 0 1 23.16,0.56 c 5.8,6.37 5.24,16.29 -0.85,22.38 z"
     id="path403"
     style="fill:#fafafa" />
  <rect
     x="0"
     y="0"
     width="448"
     height="80"
     rx="32"
     ry="32"
     id="rect405"
     style="fill:#fafafa" />
</svg>
